<?xml version="1.0" encoding="UTF-8" standalone="no"?><svg xmlns="http://www.w3.org/2000/svg" xmlns:xlink="http://www.w3.org/1999/xlink" contentScriptType="application/ecmascript" contentStyleType="text/css" height="310px" preserveAspectRatio="none" style="width:569px;height:310px;background:#FFFFFF;" version="1.1" viewBox="0 0 569 310" width="569px" zoomAndPan="magnify"><defs><filter height="300%" id="f1pckzop1m7qin" width="300%" x="-1" y="-1"><feGaussianBlur result="blurOut" stdDeviation="2.0"/><feColorMatrix in="blurOut" result="blurOut2" type="matrix" values="0 0 0 0 0 0 0 0 0 0 0 0 0 0 0 0 0 0 .4 0"/><feOffset dx="4.0" dy="4.0" in="blurOut2" result="blurOut3"/><feBlend in="SourceGraphic" in2="blurOut3" mode="normal"/></filter></defs><g><!--MD5=[22bb9a66651331e518f00ade54d6b15d]
cluster QQMessage--><polygon fill="#FFFFFF" filter="url(#f1pckzop1m7qin)" points="16,201,108,201,115,226.1201,545,226.1201,545,303,16,303,16,201" style="stroke:#000000;stroke-width:1.5;"/><line style="stroke:#000000;stroke-width:1.5;" x1="16" x2="115" y1="226.1201" y2="226.1201"/><text fill="#000000" font-family="sans-serif" font-size="14" font-weight="bold" lengthAdjust="spacing" textLength="86" x="20" y="219.0439">QQMessage</text><!--MD5=[01ab92b759fefa319d732877ab60c207]
cluster HomeworkCheckerGUI--><polygon fill="#FFFFFF" filter="url(#f1pckzop1m7qin)" points="89,6,253,6,260,31.1201,436,31.1201,436,108,89,108,89,6" style="stroke:#000000;stroke-width:1.5;"/><line style="stroke:#000000;stroke-width:1.5;" x1="89" x2="260" y1="31.1201" y2="31.1201"/><text fill="#000000" font-family="sans-serif" font-size="14" font-weight="bold" lengthAdjust="spacing" textLength="158" x="93" y="24.0439">HomeworkCheckerGUI</text><!--MD5=[487a4e51b79de51afebc6810cd6437e6]
class QQMessage--><rect codeLine="3" fill="#FEFECE" filter="url(#f1pckzop1m7qin)" height="48" id="QQMessage" style="stroke:#A80036;stroke-width:1.5;" width="101" x="427.5" y="239"/><ellipse cx="442.5" cy="255" fill="#ADD1B2" rx="11" ry="11" style="stroke:#A80036;stroke-width:1.0;"/><path d="M441.0781,260.3594 Q439.2188,260.3594 438.125,258.9688 Q437.0313,257.5781 437.0313,254.5938 Q437.0313,252.0625 438.1953,250.4063 Q439.3594,248.75 441.3438,248.75 Q442.8125,248.75 443.2813,248.875 Q443.75,249.0781 443.75,249.0781 Q443.75,249.0781 443.75,249.0078 Q443.75,248.9375 444.3594,248.0156 L445.4063,251.6719 L444.0781,252.0781 Q443.6094,250.5313 442.9453,249.8672 Q442.2813,249.2031 441.2188,249.2031 Q440.8281,249.2031 440.0625,250.7344 Q439.2969,252.2656 439.2969,254.5156 Q439.2969,256.9844 439.9609,258.375 Q440.625,259.7656 441.1563,259.7656 Q442.2188,259.7656 442.9766,259 Q443.7344,258.2344 444.0781,256.5781 L445.4063,257.1719 Q445.0781,258.5781 444.1797,259.4688 Q443.2813,260.3594 441.0781,260.3594 Z " fill="#000000"/><text fill="#000000" font-family="sans-serif" font-size="12" lengthAdjust="spacing" textLength="69" x="456.5" y="260.5576">QQMessage</text><line style="stroke:#A80036;stroke-width:1.5;" x1="428.5" x2="527.5" y1="271" y2="271"/><line style="stroke:#A80036;stroke-width:1.5;" x1="428.5" x2="527.5" y1="279" y2="279"/><path d="M306,249 L306,276.7544 A0,0 0 0 0 306,276.7544 L392,276.7544 A0,0 0 0 0 392,276.7544 L392,267 L427.32,263 L392,259 L392,259 L382,249 L306,249 A0,0 0 0 0 306,249 " fill="#FBFB77" filter="url(#f1pckzop1m7qin)" style="stroke:#A80036;stroke-width:1.0;"/><path d="M382,249 L382,259 L392,259 L382,249 " fill="#FBFB77" style="stroke:#A80036;stroke-width:1.0;"/><text fill="#000000" font-family="sans-serif" font-size="13" lengthAdjust="spacing" textLength="65" x="312" y="268.8979">服务端核心</text><!--MD5=[68b2d8e65c22da78bfb6e6180d5765c5]
class WebsocketServer--><rect codeLine="6" fill="#FEFECE" filter="url(#f1pckzop1m7qin)" height="48" id="WebsocketServer" style="stroke:#A80036;stroke-width:1.5;" width="128" x="143" y="239"/><ellipse cx="158" cy="255" fill="#ADD1B2" rx="11" ry="11" style="stroke:#A80036;stroke-width:1.0;"/><path d="M156.5781,260.3594 Q154.7188,260.3594 153.625,258.9688 Q152.5313,257.5781 152.5313,254.5938 Q152.5313,252.0625 153.6953,250.4063 Q154.8594,248.75 156.8438,248.75 Q158.3125,248.75 158.7813,248.875 Q159.25,249.0781 159.25,249.0781 Q159.25,249.0781 159.25,249.0078 Q159.25,248.9375 159.8594,248.0156 L160.9063,251.6719 L159.5781,252.0781 Q159.1094,250.5313 158.4453,249.8672 Q157.7813,249.2031 156.7188,249.2031 Q156.3281,249.2031 155.5625,250.7344 Q154.7969,252.2656 154.7969,254.5156 Q154.7969,256.9844 155.4609,258.375 Q156.125,259.7656 156.6563,259.7656 Q157.7188,259.7656 158.4766,259 Q159.2344,258.2344 159.5781,256.5781 L160.9063,257.1719 Q160.5781,258.5781 159.6797,259.4688 Q158.7813,260.3594 156.5781,260.3594 Z " fill="#000000"/><text fill="#000000" font-family="sans-serif" font-size="12" lengthAdjust="spacing" textLength="96" x="172" y="260.5576">WebsocketServer</text><line style="stroke:#A80036;stroke-width:1.5;" x1="144" x2="270" y1="271" y2="271"/><line style="stroke:#A80036;stroke-width:1.5;" x1="144" x2="270" y1="279" y2="279"/><path d="M32,249 L32,276.7544 A0,0 0 0 0 32,276.7544 L108,276.7544 A0,0 0 0 0 108,276.7544 L108,267 L142.98,263 L108,259 L108,259 L98,249 L32,249 A0,0 0 0 0 32,249 " fill="#FBFB77" filter="url(#f1pckzop1m7qin)" style="stroke:#A80036;stroke-width:1.0;"/><path d="M98,249 L98,259 L108,259 L98,249 " fill="#FBFB77" style="stroke:#A80036;stroke-width:1.0;"/><text fill="#000000" font-family="sans-serif" font-size="13" lengthAdjust="spacing" textLength="55" x="38" y="268.8979">ws服务端</text><!--MD5=[3098e181319807ac0d23bb43b97d389c]
class WebsocketClientForApp--><rect codeLine="12" fill="#FEFECE" filter="url(#f1pckzop1m7qin)" height="48" id="WebsocketClientForApp" style="stroke:#A80036;stroke-width:1.5;" width="164" x="105" y="44"/><ellipse cx="120" cy="60" fill="#ADD1B2" rx="11" ry="11" style="stroke:#A80036;stroke-width:1.0;"/><path d="M118.5781,65.3594 Q116.7188,65.3594 115.625,63.9688 Q114.5313,62.5781 114.5313,59.5938 Q114.5313,57.0625 115.6953,55.4063 Q116.8594,53.75 118.8438,53.75 Q120.3125,53.75 120.7813,53.875 Q121.25,54.0781 121.25,54.0781 Q121.25,54.0781 121.25,54.0078 Q121.25,53.9375 121.8594,53.0156 L122.9063,56.6719 L121.5781,57.0781 Q121.1094,55.5313 120.4453,54.8672 Q119.7813,54.2031 118.7188,54.2031 Q118.3281,54.2031 117.5625,55.7344 Q116.7969,57.2656 116.7969,59.5156 Q116.7969,61.9844 117.4609,63.375 Q118.125,64.7656 118.6563,64.7656 Q119.7188,64.7656 120.4766,64 Q121.2344,63.2344 121.5781,61.5781 L122.9063,62.1719 Q122.5781,63.5781 121.6797,64.4688 Q120.7813,65.3594 118.5781,65.3594 Z " fill="#000000"/><text fill="#000000" font-family="sans-serif" font-size="12" lengthAdjust="spacing" textLength="132" x="134" y="65.5576">WebsocketClientForApp</text><line style="stroke:#A80036;stroke-width:1.5;" x1="106" x2="268" y1="76" y2="76"/><line style="stroke:#A80036;stroke-width:1.5;" x1="106" x2="268" y1="84" y2="84"/><path d="M304.5,54 L304.5,64 L269.03,68 L304.5,72 L304.5,81.7544 A0,0 0 0 0 304.5,81.7544 L419.5,81.7544 A0,0 0 0 0 419.5,81.7544 L419.5,64 L409.5,54 L304.5,54 A0,0 0 0 0 304.5,54 " fill="#FBFB77" filter="url(#f1pckzop1m7qin)" style="stroke:#A80036;stroke-width:1.0;"/><path d="M409.5,54 L409.5,64 L419.5,64 L409.5,54 " fill="#FBFB77" style="stroke:#A80036;stroke-width:1.0;"/><text fill="#000000" font-family="sans-serif" font-size="13" lengthAdjust="spacing" textLength="94" x="310.5" y="73.8979">教师端ws客户端</text><!--MD5=[96a10172b8df7c2f4b8eb18704d0e052]
class mian--><rect fill="#FEFECE" filter="url(#f1pckzop1m7qin)" height="48" id="mian" style="stroke:#A80036;stroke-width:1.5;" width="60" x="455" y="44"/><ellipse cx="470" cy="60" fill="#ADD1B2" rx="11" ry="11" style="stroke:#A80036;stroke-width:1.0;"/><path d="M468.5781,65.3594 Q466.7188,65.3594 465.625,63.9688 Q464.5313,62.5781 464.5313,59.5938 Q464.5313,57.0625 465.6953,55.4063 Q466.8594,53.75 468.8438,53.75 Q470.3125,53.75 470.7813,53.875 Q471.25,54.0781 471.25,54.0781 Q471.25,54.0781 471.25,54.0078 Q471.25,53.9375 471.8594,53.0156 L472.9063,56.6719 L471.5781,57.0781 Q471.1094,55.5313 470.4453,54.8672 Q469.7813,54.2031 468.7188,54.2031 Q468.3281,54.2031 467.5625,55.7344 Q466.7969,57.2656 466.7969,59.5156 Q466.7969,61.9844 467.4609,63.375 Q468.125,64.7656 468.6563,64.7656 Q469.7188,64.7656 470.4766,64 Q471.2344,63.2344 471.5781,61.5781 L472.9063,62.1719 Q472.5781,63.5781 471.6797,64.4688 Q470.7813,65.3594 468.5781,65.3594 Z " fill="#000000"/><text fill="#000000" font-family="sans-serif" font-size="12" lengthAdjust="spacing" textLength="28" x="484" y="65.5576">mian</text><line style="stroke:#A80036;stroke-width:1.5;" x1="456" x2="514" y1="76" y2="76"/><line style="stroke:#A80036;stroke-width:1.5;" x1="456" x2="514" y1="84" y2="84"/><!--MD5=[af8c36ac24ffed9a16112cd96a40e3e7]
link WebsocketClientForApp to WebsocketServer--><path codeLine="15" d="M189.41,92.28 C193.09,127.73 200.07,195.17 204.05,233.5 " fill="none" id="WebsocketClientForApp-to-WebsocketServer" style="stroke:#A80036;stroke-width:1.0;"/><polygon fill="#A80036" points="204.61,238.94,207.6654,229.5771,204.097,233.9664,199.7076,230.3979,204.61,238.94" style="stroke:#A80036;stroke-width:1.0;"/><text fill="#000000" font-family="sans-serif" font-size="13" lengthAdjust="spacing" textLength="78" x="203.5" y="139.8979">主动提醒消息</text><path d="M204,148.7544 L204,175.7544 L277,175.7544 L277,158.7544 L267,148.7544 L204,148.7544 " fill="#FBFB77" filter="url(#f1pckzop1m7qin)" style="stroke:#A80036;stroke-width:1.0;"/><path d="M267,148.7544 L267,158.7544 L277,158.7544 L267,148.7544 " fill="#FBFB77" style="stroke:#A80036;stroke-width:1.0;"/><text fill="#000000" font-family="sans-serif" font-size="13" lengthAdjust="spacing" textLength="52" x="210" y="168.6523">发送请求</text><!--MD5=[a7c393857559968e962d340f354f6f66]
link mian to QQMessage--><path codeLine="17" d="M484.16,92.28 C482.87,127.73 480.42,195.17 479.03,233.5 " fill="none" id="mian-to-QQMessage" style="stroke:#A80036;stroke-width:1.0;"/><polygon fill="#A80036" points="478.84,238.94,483.146,230.0823,479.0113,233.9429,475.1507,229.8082,478.84,238.94" style="stroke:#A80036;stroke-width:1.0;"/><text fill="#000000" font-family="sans-serif" font-size="13" lengthAdjust="spacing" textLength="78" x="483" y="160.8979">初始化服务端</text><!--MD5=[8e52a427eef7c432173e0f800af289b0]
@startuml
package QQMessage
{
    class QQMessage
    note left: 服务端核心

    class WebsocketServer
    note left: ws服务端
}

package HomeworkCheckerGUI
{
    class WebsocketClientForApp
    note right: 教师端ws客户端
}
WebsocketClientForApp - -> WebsocketServer : 主动提醒消息
note on link : 发送请求
mian - -> QQMessage : 初始化服务端
@enduml

PlantUML version 1.2021.7(Sun May 23 20:40:07 CST 2021)
(GPL source distribution)
Java Runtime: Java(TM) SE Runtime Environment
JVM: Java HotSpot(TM) 64-Bit Server VM
Default Encoding: GBK
Language: zh
Country: CN
--></g></svg>